<svg xmlns="http://www.w3.org/2000/svg" xmlns:xlink="http://www.w3.org/1999/xlink" width="40" zoomAndPan="magnify" viewBox="0 0 30 30.000001" height="40" preserveAspectRatio="xMidYMid meet" version="1.0"><defs><clipPath id="1af55c82eb"><path d="M 0.484375 6.914062 L 29.515625 6.914062 L 29.515625 22.15625 L 0.484375 22.15625 Z M 0.484375 6.914062 " clip-rule="nonzero"/></clipPath></defs><g clip-path="url(#1af55c82eb)"><path fill="#ffffff" d="M 28.746094 6.902344 C 28.558594 6.910156 28.398438 6.980469 28.265625 7.117188 L 15 20.421875 L 1.734375 7.117188 C 1.597656 6.976562 1.433594 6.90625 1.242188 6.90625 C 0.933594 6.90625 0.71875 7.050781 0.605469 7.335938 C 0.488281 7.625 0.539062 7.875 0.761719 8.089844 L 14.515625 21.882812 C 14.648438 22.019531 14.808594 22.085938 15 22.085938 C 15.191406 22.085938 15.351562 22.019531 15.484375 21.882812 L 29.238281 8.089844 C 29.464844 7.871094 29.515625 7.617188 29.398438 7.328125 C 29.277344 7.039062 29.058594 6.894531 28.746094 6.902344 Z M 28.746094 6.902344 " fill-opacity="1" fill-rule="nonzero"/></g></svg>