<!DOCTYPE svg PUBLIC "-//W3C//DTD SVG 1.1//EN" "http://www.w3.org/Graphics/SVG/1.1/DTD/svg11.dtd">

<!-- Uploaded to: SVG Repo, www.svgrepo.com, Transformed by: SVG Repo Mixer Tools -->
<svg fill="#c22e80" height="36px" width="36px" version="1.1" id="Capa_1" xmlns="http://www.w3.org/2000/svg" xmlns:xlink="http://www.w3.org/1999/xlink" viewBox="-47.17 -47.17 566.04 566.04" xml:space="preserve" stroke="#c22e80" transform="matrix(1, 0, 0, 1, 0, 0)rotate(0)" stroke-width="47.170100000000005">

<g id="SVGRepo_bgCarrier" stroke-width="0" transform="translate(40.09458500000002,40.09458500000002), scale(0.83)">

<path transform="translate(-47.17, -47.17), scale(17.68875)" d="M16,28.061955185400116C18.946519106847617,27.761109640489813,20.50821317698328,24.683055751536315,22.425593840054614,22.425593840054617C24.102414529536965,20.451359452592218,25.886826599612924,18.565374822363285,26.244850428567993,16C26.660832891210887,13.019329860463875,26.304900499945315,9.905731652251262,24.510006982138915,7.489993017861087C22.440438313367064,4.704570406392909,19.455276781953707,2.5320603206165355,16,2.2115046166711387C12.258423372174558,1.8643880742099381,8.55957455249035,3.2548284380461716,5.7495311325101675,5.749531132510164C2.761468546621424,8.40227583077403,-0.047743155021345296,12.0378060437375,0.4685818437072964,15.999999999999996C0.9604070609759005,19.774186623149184,5.107026123050899,21.552389571910084,8.113068443913654,23.886931556086342C10.55535562783658,25.783652014315706,12.923694060499052,28.37605222774718,16,28.061955185400116" fill="#c22e80" strokewidth="0"/>

</g>

<g id="SVGRepo_tracerCarrier" stroke-linecap="round" stroke-linejoin="round" stroke="#CCCCCC" stroke-width="15.094432000000001"/>

<g id="SVGRepo_iconCarrier"> <g> <path d="M433.601,67.001c-24.7-24.7-57.4-38.2-92.3-38.2s-67.7,13.6-92.4,38.3l-12.9,12.9l-13.1-13.1 c-24.7-24.7-57.6-38.4-92.5-38.4c-34.8,0-67.6,13.6-92.2,38.2c-24.7,24.7-38.3,57.5-38.2,92.4c0,34.9,13.7,67.6,38.4,92.3 l187.8,187.8c2.6,2.6,6.1,4,9.5,4c3.4,0,6.9-1.3,9.5-3.9l188.2-187.5c24.7-24.7,38.3-57.5,38.3-92.4 C471.801,124.501,458.301,91.701,433.601,67.001z M414.401,232.701l-178.7,178l-178.3-178.3c-19.6-19.6-30.4-45.6-30.4-73.3 s10.7-53.7,30.3-73.2c19.5-19.5,45.5-30.3,73.1-30.3c27.7,0,53.8,10.8,73.4,30.4l22.6,22.6c5.3,5.3,13.8,5.3,19.1,0l22.4-22.4 c19.6-19.6,45.7-30.4,73.3-30.4c27.6,0,53.6,10.8,73.2,30.3c19.6,19.6,30.3,45.6,30.3,73.3 C444.801,187.101,434.001,213.101,414.401,232.701z"/> </g> </g>

</svg>